# xmcd
#
# Track frame offsets:
#	150
#	8153
#	24715
#	42328
#	59868
#	76211
#	97091
#	113939
#	131169
#	131469
#	149557
#	174281
#	200210
#	220953
#
# Disc length: 3176 seconds
#
# Revision: 0
# Processed by: cddbd v1.5.1PL0 Copyright (c) Steve Scherf et al.
# Submitted via: EasyCDDAExtractor 8.0.2.1
#
DISCID=d80c660e
DTITLE=I-20 - Self Explanatory
DYEAR=2004
DGENRE=Hip-Hop
TTITLE0=Eyes Open (Intro)
TTITLE1=Meeting The Dealer (Featuring Ludacris)
TTITLE2=Fightin In The Club (Featuring Lil Fate, Titty Boi and Chingy)
TTITLE3=The Realist
TTITLE4=Backstage (Featuring Butch Cassidy)
TTITLE5=Break Bread (Featuring Bone Crusher and Ludacris)
TTITLE6=May Sound Crazy
TTITLE7=Hennessey And Hydro (Featuring Three 6 Mafia)
TTITLE8=Point Em Out (Featuring Juvenile)
TTITLE9=So Decatur
TTITLE10=OG Anthem (Featuring Butch Cassidy)
TTITLE11=Slow Fuckin' (Featuring Shawnna)
TTITLE12=Kisha
TTITLE13=Hey Shawty (Featuring Devin The Dude)
EXTD=
EXTT0=
EXTT1=
EXTT2=
EXTT3=
EXTT4=
EXTT5=
EXTT6=
EXTT7=
EXTT8=
EXTT9=
EXTT10=
EXTT11=
EXTT12=
EXTT13=
PLAYORDER=
